<?xml version="1.0" encoding="utf-8"?>
<!-- Generator: Adobe Illustrator 19.1.0, SVG Export Plug-In . SVG Version: 6.00 Build 0)  -->
<svg version="1.1"
	 id="svg249" xmlns:inkscape="http://www.inkscape.org/namespaces/inkscape" xmlns:svg="http://www.w3.org/2000/svg"
	 xmlns="http://www.w3.org/2000/svg" xmlns:xlink="http://www.w3.org/1999/xlink" x="0px" y="0px" viewBox="-273 381 32 32"
	 style="enable-background:new -273 381 32 32;" xml:space="preserve">
<style type="text/css">
	.st0{opacity:0.2632;fill:url(#path3099_1_);enable-background:new    ;}
	.st1{opacity:0.5673;fill:url(#path3667_1_);enable-background:new    ;}
	.st2{fill:url(#rect15391_2_);stroke:url(#rect15391_3_);stroke-linecap:round;stroke-linejoin:round;}
	.st3{fill:none;stroke:url(#rect15660_2_);stroke-linecap:round;stroke-linejoin:round;}
	.st4{fill-opacity:0.2105;}
	.st5{fill-opacity:0.1579;stroke:#000000;stroke-linecap:square;stroke-opacity:0.193;}
	.st6{fill:none;stroke:#000000;stroke-linecap:square;stroke-opacity:0.193;}
	.st7{fill:none;stroke:#000000;stroke-linecap:square;stroke-opacity:0.1579;}
	
		.st8{fill:url(#path4295_1_);stroke:#072166;stroke-width:0.8397;stroke-linecap:round;stroke-linejoin:round;stroke-miterlimit:10;}
	.st9{opacity:0.3654;fill:url(#path4297_1_);enable-background:new    ;}
	.st10{opacity:0.4813;fill:none;stroke:#FFFFFF;stroke-width:0.4466;stroke-miterlimit:10;enable-background:new    ;}
	
		.st11{fill:url(#path4307_1_);stroke:#8A0707;stroke-width:0.707;stroke-linecap:round;stroke-linejoin:round;stroke-miterlimit:10;}
	.st12{opacity:0.3654;fill:url(#path4309_1_);enable-background:new    ;}
	.st13{opacity:0.6442;fill:none;stroke:#FFFFFF;stroke-width:0.376;stroke-miterlimit:10;enable-background:new    ;}
	.st14{fill:#FFFFFF;}
	.st15{font-family:'04b03';}
	.st16{font-size:8px;}
</style>
<g id="layer6">
</g>
<g id="layer1">
</g>
<radialGradient id="path3099_1_" cx="-370.5308" cy="40.0054" r="6.5256" gradientTransform="matrix(1.6167 0 0 -0.4982 342.5728 427.6713)" gradientUnits="userSpaceOnUse">
	<stop  offset="0" style="stop-color:#000000"/>
	<stop  offset="1" style="stop-color:#000000;stop-opacity:0"/>
</radialGradient>
<path id="path3099" class="st0" d="M-245.9,407.7c0,1.8-4.7,3.3-10.5,3.3c-5.8,0-10.5-1.5-10.5-3.3s4.7-3.3,10.5-3.3
	C-250.6,404.5-245.9,405.9-245.9,407.7z"/>
<g id="g8207" transform="translate(-48.652095,-7.9825832)">
</g>
<g id="g8209" transform="translate(-48.652095,-7.9825832)">
</g>
<g id="layer1_1_">
	
		<radialGradient id="path3667_1_" cx="-296.9157" cy="-883.079" r="8.746" gradientTransform="matrix(1.1693 0 0 -0.2212 90.7483 211.8384)" gradientUnits="userSpaceOnUse">
		<stop  offset="0" style="stop-color:#000000"/>
		<stop  offset="1" style="stop-color:#000000;stop-opacity:0"/>
	</radialGradient>
	<path id="path3667" class="st1" d="M-246.2,407.2c0,1.1-4.6,1.9-10.2,1.9c-5.6,0-10.2-0.9-10.2-1.9c0,0,0,0,0,0
		c0-1.1,4.6-1.9,10.2-1.9S-246.2,406.1-246.2,407.2C-246.2,407.2-246.2,407.2-246.2,407.2z"/>
	
		<radialGradient id="rect15391_2_" cx="-239.916" cy="408.7789" r="47.9227" gradientTransform="matrix(0.9638 0 0 -1.0431 -20.4473 830.0599)" gradientUnits="userSpaceOnUse">
		<stop  offset="0" style="stop-color:#FAFAFA"/>
		<stop  offset="1" style="stop-color:#BBBBBB"/>
	</radialGradient>
	
		<radialGradient id="rect15391_3_" cx="-257.9496" cy="423.9828" r="21.321" gradientTransform="matrix(0.9716 0 0 -1.0347 -12.6945 824.053)" gradientUnits="userSpaceOnUse">
		<stop  offset="0" style="stop-color:#A3A3A3"/>
		<stop  offset="1" style="stop-color:#4C4C4C"/>
	</radialGradient>
	<path id="rect15391_1_" class="st2" d="M-265.5,385.1h18.1c0.4,0,0.6,0.3,0.6,0.6v21.4c0,0.4-0.3,0.6-0.6,0.6h-18.1
		c-0.4,0-0.6-0.3-0.6-0.6v-21.4C-266.1,385.4-265.8,385.1-265.5,385.1z"/>
	
		<radialGradient id="rect15660_2_" cx="-259.2697" cy="421.8193" r="21.5788" gradientTransform="matrix(0.9748 0 0 -1.0341 -11.0135 823.6275)" gradientUnits="userSpaceOnUse">
		<stop  offset="0" style="stop-color:#FFFFFF"/>
		<stop  offset="1" style="stop-color:#F8F8F8"/>
	</radialGradient>
	<path id="rect15660_1_" class="st3" d="M-265.5,385.6h18.1c0,0,0.1,0,0.1,0.1v21.4c0,0,0,0.1-0.1,0.1h-18.1c0,0-0.1,0-0.1-0.1
		L-265.5,385.6C-265.6,385.7-265.5,385.6-265.5,385.6z"/>
	<path id="rect13655" class="st4" d="M-264.2,386.5v2.7v16.6l5.5,0v-16.6h9.9v-2.8H-264.2z"/>
	<path id="path13660" class="st5" d="M-249,389h-14.9"/>
	<path id="path13662" class="st5" d="M-249,392.3h-14.9"/>
	<path id="path13664" class="st5" d="M-249,395.6h-14.9"/>
	<path id="path13666" class="st5" d="M-249,398.9h-14.9"/>
	<path id="path13668" class="st5" d="M-249,402.2h-14.9"/>
	<path id="path13682" class="st5" d="M-249,405.5h-14.9"/>
	<path id="path2464" class="st5" d="M-249,390.6h-14.9"/>
	<path id="path2466" class="st6" d="M-249,393.9h-14.9"/>
	<path id="path2468" class="st5" d="M-249,397.2h-14.9"/>
	<path id="path2470" class="st5" d="M-249,400.6h-14.9"/>
	<path id="path2472" class="st5" d="M-249,403.9h-14.9"/>
	<path id="path2485" class="st7" d="M-249,386.7v18.8"/>
	<path id="path2487" class="st7" d="M-252.3,386.7v18.8"/>
	<path id="path2489" class="st7" d="M-255.6,386.7v18.8"/>
	<path id="path2491" class="st7" d="M-258.9,386.7v18.8"/>
	<path id="path2493" class="st7" d="M-263.9,386.7v18.8"/>
	<path id="path2495" class="st5" d="M-249,386.7h-14.9"/>
</g>
<g id="g8947" transform="translate(-0.3606558,0)">
	
		<radialGradient id="path4295_1_" cx="-916.1838" cy="-52.4518" r="11.4219" gradientTransform="matrix(-0.7694 8.538944e-03 -5.060225e-03 -0.4559 -968.0351 390.0374)" gradientUnits="userSpaceOnUse">
		<stop  offset="0" style="stop-color:#4D5FD8"/>
		<stop  offset="1" style="stop-color:#040687"/>
	</radialGradient>
	<path id="path4295" class="st8" d="M-257.7,400.5v5.1h-7.6v2.6l-6-5.1l6-5.1v2.5L-257.7,400.5z"/>
	
		<radialGradient id="path4297_1_" cx="-854.5643" cy="256.7913" r="11.5669" gradientTransform="matrix(-0.9148 0 0 -0.6962 -1046.8962 576.9977)" gradientUnits="userSpaceOnUse">
		<stop  offset="0" style="stop-color:#FFFFFF"/>
		<stop  offset="1" style="stop-color:#FFFFFF;stop-opacity:0"/>
	</radialGradient>
	<path id="path4297" class="st9" d="M-265.5,398.3v2.4h7.6v2.7c-5.3,0.6-8.7-2.2-13.2-0.3L-265.5,398.3z"/>
	<path id="path4299" class="st10" d="M-258,400.8v4.5h-7.7v2.2l-5.3-4.5l5.3-4.4v2.2L-258,400.8z"/>
</g>
<g id="g5112" transform="matrix(1.1876815,0,0,1.1876815,-9.0076379,-0.2033853)">
	
		<radialGradient id="path4307_1_" cx="-928.8655" cy="1346.7749" r="11.4219" gradientTransform="matrix(-0.4771 8.538944e-03 8.158826e-03 0.4559 -655.332 -268.8607)" gradientUnits="userSpaceOnUse">
		<stop  offset="0" style="stop-color:#EF0909"/>
		<stop  offset="1" style="stop-color:#AB0404"/>
	</radialGradient>
	<path id="path4307" class="st11" d="M-206.9,332.4v4.3h6.4v2.2l5.1-4.3l-5.1-4.3v2.1L-206.9,332.4z"/>
	
		<radialGradient id="path4309_1_" cx="-193.9147" cy="205.7192" r="11.5669" gradientTransform="matrix(0.9148 0 0 -0.6962 -23.2767 473.7357)" gradientUnits="userSpaceOnUse">
		<stop  offset="0" style="stop-color:#FFFFFF"/>
		<stop  offset="1" style="stop-color:#FFFFFF;stop-opacity:0"/>
	</radialGradient>
	<path id="path4309" class="st12" d="M-200.4,330.6v2h-6.4v2.3c4.5,0.5,7.4-1.9,11.1-0.2L-200.4,330.6z"/>
	<path id="path4311" class="st13" d="M-206.7,332.7v3.8h6.4v1.9l4.4-3.8l-4.4-3.7v1.8L-206.7,332.7z"/>
</g>
<rect x="-273" y="381" width="28.5" height="9.2"/>
<text transform="matrix(1 0 0 1 -271.7617 388.0646)" class="st14 st15 st16">&lt;DATA&gt;</text>
</svg>
